<svg id="Layer_1" data-name="Layer 1" xmlns="http://www.w3.org/2000/svg" viewBox="0 0 328.26 51.17"><title>logoname</title><path d="M30.16,4.13q0,8.06,0,24.23t0,24.23a0.76,0.76,0,0,1-.86.86,0.8,0.8,0,0,1-.86-0.72,0.21,0.21,0,0,0-.07-0.14L23,41.21,18.42,31,13,19,8.27,8.38q0,6.55,0,21.49t0,22.93a0.76,0.76,0,0,1-.86.86,0.76,0.76,0,0,1-.86-0.86q0-8.06,0-24.23t0-24.23A0.76,0.76,0,0,1,7.4,3.48a0.85,0.85,0,0,1,.86.65,0.2,0.2,0,0,0,.07.14L14.46,18l7.7,17.06L28.5,48.77q0-6.7,0-21.67t0-23A0.86,0.86,0,1,1,30.16,4.13Z" transform="translate(-6.54 -2.72)"/><path d="M34.62,3.12q3.89,0.07,17.64.07a0.76,0.76,0,0,1,.86.86,0.76,0.76,0,0,1-.86.86H43.84V51.79h8a0.86,0.86,0,1,1,0,1.73q-13.75,0-17.64-.07a0.86,0.86,0,1,1,0-1.73q3.46,0.07,7.92.07V4.92q-4.18,0-7.49-.07A0.86,0.86,0,0,1,33.76,4,0.86,0.86,0,0,1,34.62,3.12Z" transform="translate(-6.54 -2.72)"/><path d="M73.57,16.3A30.43,30.43,0,0,0,72,8.66q-1.15-3-2.74-3.74T66,5.86q-2.3,2.09-4.75,7.49a39.74,39.74,0,0,0-3.17,12.42,50,50,0,0,0,.22,12.92q0.79,6.12,3.42,9.43t5.72,3.42q3.1,0.11,5.8-3.13T77,38.69a0.88,0.88,0,1,1,1.73.29q-1.15,6.91-4.18,10.58t-7.13,3.67q-3.89-.14-6.91-4A20.7,20.7,0,0,1,56.58,39a52.55,52.55,0,0,1-.18-13.39,42,42,0,0,1,3.28-13q2.59-5.69,5.18-8.06T70,3.41q2.09,1,3.53,4.61a29.83,29.83,0,0,1,1.73,8.14,1.05,1.05,0,0,1-.22.65,0.68,0.68,0,0,1-.58.29,1,1,0,0,1-.65-0.22A0.68,0.68,0,0,1,73.57,16.3Z" transform="translate(-6.54 -2.72)"/><path d="M94.38,3.12h0.14a6.46,6.46,0,0,1,4.39,2.74,21,21,0,0,1,3.1,5.9,57.06,57.06,0,0,1,2.88,17.14q0.29,10.15-2.38,16.92-3.17,8.06-9.5,7.85-6.7-.22-9.86-8.57Q80.48,38,81.06,27.6a47.65,47.65,0,0,1,3.89-17q3.82-8,9.36-7.49h0.07ZM94.16,4.85q-4.32-.43-7.63,6.48a44.47,44.47,0,0,0-3.74,16.42q-0.58,9.86,2,16.7,2.81,7.34,8.21,7.49,5.18,0.15,7.92-6.77,2.52-6.34,2.23-16.2a55,55,0,0,0-2.81-16.63,18.21,18.21,0,0,0-2.81-5.4,4.7,4.7,0,0,0-3.17-2.09H94.16Z" transform="translate(-6.54 -2.72)"/><path d="M107.19,52.51V3.91a0.83,0.83,0,1,1,1.66,0V51.65l17.06-.07a0.76,0.76,0,0,1,.86.86,0.93,0.93,0,0,1-.43,1l-18.29-.07A0.76,0.76,0,0,1,107.19,52.51Z" transform="translate(-6.54 -2.72)"/><path d="M131.24,3h18a7.19,7.19,0,0,1,.07,1.22,0.76,0.76,0,0,1-.86.86l-16.7-.07V27l17.5-.14c0.19-.14.29,0.07,0.29,0.65a2,2,0,0,1-.29,1.22l-17.71.14,0.14,22.75,16.7,0.07a0.86,0.86,0,1,1,0,1.73l-18.07.07L130,52.87h-0.07V52.8a1.17,1.17,0,0,1-.07-0.36,0.8,0.8,0,0,1,.07-0.36L130,4.56a1.17,1.17,0,0,1-.07-0.36A0.8,0.8,0,0,1,130,3.84,1.76,1.76,0,0,1,131.24,3Z" transform="translate(-6.54 -2.72)"/><path d="M175.3,3.41q8.78-1.8,13.82,1.08a8.42,8.42,0,0,1,4.46,8.14,12.43,12.43,0,0,1-2.45,6.66,17.9,17.9,0,0,1-6.34,5.44l5.11,12.82q3.82,9.72,6,14.9a0.87,0.87,0,0,1-1.58.72l-6-15-5-12.67a26.41,26.41,0,0,1-7.13,1.94V52.51a0.86,0.86,0,1,1-1.73,0V4.7a0.88,0.88,0,0,1,.14-0.5A0.84,0.84,0,0,1,175.3,3.41ZM176.17,5V25.73q7.13-1,11.34-4.93t4.36-8.24A6.8,6.8,0,0,0,188.26,6Q183.94,3.48,176.17,5Z" transform="translate(-6.54 -2.72)"/><path d="M203.38,35.16L213,4.63a0.49,0.49,0,0,1,.14-0.36,0.69,0.69,0,0,1,1-.5,0.79,0.79,0,0,1,.65,1q1.37,5.4,4,15l4.75,17.64q2.09,8,3.74,15.12a0.81,0.81,0,0,1-.68,1,0.78,0.78,0,0,1-1-.61q-1.66-7.2-4-16.13h-17l-5.4,16.06a0.72,0.72,0,0,1-1,.54,0.76,0.76,0,0,1-.54-1.12Zm1.8,0h16.06L213.82,7.94Z" transform="translate(-6.54 -2.72)"/><path d="M243.49,23.42a0.69,0.69,0,0,1-.43.58,0.74,0.74,0,0,1-1.15-.29l-3-5.11-3.46-6.12q-1.58-2.66-3.1-5,0,7,0,22.18t0,23.18a0.9,0.9,0,0,1-1.8,0q0-8.06,0-24.16t0-24.16V4.34a0.76,0.76,0,0,1,.86-0.86,0.84,0.84,0,0,1,.94.72q1.3,1.94,2.74,4.39l2.45,4,2.66,4.61,2.38,4.25,5.11-8.42q4.25-6.91,5.54-9.5a0.87,0.87,0,0,1,1.22-.43,0.77,0.77,0,0,1,.43,1.15q0,8,0,24.08t0,24.16a0.9,0.9,0,0,1-1.8,0q0-8,0-23.11t0-22q-1.22,2.16-3.89,6.48Q245.14,20.4,243.49,23.42Z" transform="translate(-6.54 -2.72)"/><path d="M276.61,10.18a10.4,10.4,0,0,0-4.5-4.93A6.36,6.36,0,0,0,267,4.92a7.78,7.78,0,0,0-4,3.53,9.84,9.84,0,0,0-1,6.12,10.84,10.84,0,0,0,2.74,5.4,16.16,16.16,0,0,0,1.51,1.73l2.09,2.16,1.8,1.87A41,41,0,0,1,276,33.58a19.11,19.11,0,0,1,2.3,8.86q0.14,5.26-2.34,8.28a8.24,8.24,0,0,1-6.3,3.17,11.1,11.1,0,0,1-7.27-2.48,15.28,15.28,0,0,1-5.11-7.52,0.84,0.84,0,0,1,1.58-.58,13.76,13.76,0,0,0,4.54,6.7,9.38,9.38,0,0,0,6.19,2.16,6.55,6.55,0,0,0,5.08-2.56q2.05-2.48,1.91-7.16a17.33,17.33,0,0,0-2.16-8.1A40.36,40.36,0,0,0,268.83,27Q268.25,26.3,267,25l-2.09-2.16q-0.86-.93-1.58-1.8a12.5,12.5,0,0,1-3.1-6.19,11.53,11.53,0,0,1,1.26-7.27,9.19,9.19,0,0,1,4.86-4.25,7.79,7.79,0,0,1,6.41.32,12.19,12.19,0,0,1,5.4,5.8,0.75,0.75,0,0,1-.4,1.12A0.79,0.79,0,0,1,276.61,10.18Z" transform="translate(-6.54 -2.72)"/><path d="M286.11,35.16l9.65-30.53a0.49,0.49,0,0,1,.14-0.36,0.69,0.69,0,0,1,1-.5,0.79,0.79,0,0,1,.65,1q1.37,5.4,4,15l4.75,17.64q2.09,8,3.74,15.12a0.8,0.8,0,0,1-.68,1,0.78,0.78,0,0,1-1-.61q-1.66-7.2-4-16.13h-17L282,52.94a0.72,0.72,0,0,1-1,.54,0.76,0.76,0,0,1-.54-1.12Zm1.8,0H304L296.55,7.94Z" transform="translate(-6.54 -2.72)"/><path d="M334.71,4L323.48,34.51q-0.29,1-3.67,9.22a81.88,81.88,0,0,0-3.31,9.22,1,1,0,0,1-1.33.65q-1-.22-0.76-1.08,1.15-3.74,3.38-9.36,3.38-8.21,3.82-9.22l2-5.54q-2.23-4.68-5.9-13.68L313.25,4.06q-0.36-.79.61-1.08a1,1,0,0,1,1.33.5l4.25,10.22,5.11,12,8.28-22.18a0.86,0.86,0,0,1,1.22-.61Q335.07,3.19,334.71,4Z" transform="translate(-6.54 -2.72)"/></svg>