<svg id="Layer_1" data-name="Layer 1" xmlns="http://www.w3.org/2000/svg" viewBox="0 0 377.06 213.94"><defs><style>.cls-1{fill:none;}</style></defs><title>signature2</title><path class="cls-1" d="M6.21,127.9" transform="translate(-5.92 -6.45)"/><path class="cls-1" d="M5.92,151.1a406.26,406.26,0,0,1,35.21-107c6.4,24.45,6,50.09,5.39,75.35-0.3,11.88-.56,24.2,4.17,35.1,7.9-19.83,11.52-41,17.22-61.61s13.9-41.19,29-56.26" transform="translate(-5.92 -6.45)"/><path class="cls-1" d="M67.08,14.08c0.49-2.53,3.13-4,5.55-4.85C85.16,4.68,99.3,6,111.71,10.89S135,23.82,145,32.68c13,11.55,25.53,26.92,23.65,44.21-1.65,15.22-14.74,27.4-29.38,31.92s-30.47,2.65-45.38-.84c0.63,6.89,1.37,14.09,5.17,19.88s11.71,9.5,17.85,6.31c1.36-.71,2.79-1.75,4.27-1.34s2.23,2.16,2.7,3.67l3.86,12.3a67.89,67.89,0,0,0,18.16-17.32,23.86,23.86,0,0,1-.09,16.38,49,49,0,0,0,20.06-.32L165,159.32a240.63,240.63,0,0,1,56-24.27c-2.85,8.26-9.09,14.82-15.16,21.11l-62,64.23c16-29,43.25-49.82,70.51-68.62C268.66,114.37,325.86,81.5,383,48.67" transform="translate(-5.92 -6.45)"/></svg>