<?xml version="1.0" encoding="utf-8"?>
<!-- Generator: Adobe Illustrator 19.2.1, SVG Export Plug-In . SVG Version: 6.00 Build 0)  -->
<svg version="1.1" id="Layer_1" xmlns="http://www.w3.org/2000/svg" xmlns:xlink="http://www.w3.org/1999/xlink" x="0px" y="0px"
	 viewBox="0 0 390.5 232.8" style="enable-background:new 0 0 390.5 232.8;" xml:space="preserve">
<g>
	<g>
		<path d="M6.2,127.9C6.3,127.9,6.3,127.8,6.2,127.9C6.1,127.8,6.1,127.9,6.2,127.9L6.2,127.9z"/>
	</g>
</g>
<g>
	<g>
		<path d="M7.3,151.5C14.7,115.1,27.5,79,44,45.8c-2-0.3-4.1-0.5-6.1-0.8c4.7,18.8,5.6,38.1,5.5,57.4c-0.1,17.5-2.8,36.4,4.1,53.1
			c1.3,3.1,5.2,3.2,6.4,0c8.2-21,12-43.2,18.4-64.7C75.1,81.3,78.5,72,83,63.3c4.6-9.1,10.5-16.9,16.5-25.1c1.7-2.3-1.7-5.8-4-4
			c-15.8,12-23.8,33.1-29.2,51.5c-6.7,22.6-10.1,46-18.7,68c2.1,0,4.3,0,6.4,0c-7-17.1-3.7-37.1-3.6-55.1c0-18.6-1.2-37.2-5.9-55.3
			c-0.7-2.6-4.8-3.4-6.1-0.8c-8.2,16.9-15.2,34.4-21,52.3c-5.9,18.3-9.6,37.1-12.7,56C4.3,152.5,6.9,153.3,7.3,151.5L7.3,151.5z"/>
	</g>
</g>
<g>
	<g>
		<path d="M68.5,14.5c1.8-4.5,10.2-4.8,14.2-5c4.9-0.3,9.9,0,14.7,0.8c8.9,1.6,17.2,5.2,24.9,9.9C137,29,152.4,42,160.5,57.4
			c8,15.3,3,31.9-11.3,41.3c-16.1,10.5-36.1,8.7-54.1,4.9c-2.6-0.6-6.2,1.3-5.8,4.4c1.2,10.7,2.6,22.4,12.4,28.8c4,2.6,9.2,4,14,2.8
			c1-0.3,2-0.9,3-1.1c1.2-0.2,0.4-1.1,1.1,1c1.1,3.5,2.1,7.1,3.2,10.6c0.9,2.9,4.5,4.8,7.3,3c7.9-5.1,14.5-11.4,20.1-19
			c-3.1-0.4-6.3-0.8-9.4-1.2c1.5,4.8,1.5,8.9-0.2,13.6c-0.9,2.5,1,5.9,3.7,6.4c7.7,1.5,15.2,1.4,22.9-0.1c-2.3-1.7-4.6-3.5-6.9-5.2
			c-0.3,3.9-0.6,7.9-0.9,11.8c-0.3,4.3,4.9,6.8,8.3,4.8c17.3-10,35.5-18,54.6-24c-2.2-2.2-4.3-4.3-6.5-6.5c-3,8-9.4,14.1-15.2,20.2
			c-6.7,6.9-13.3,13.8-20,20.7c-13.6,14-27.1,28-40.7,42c2.9,2.2,5.7,4.4,8.6,6.6c17.5-31.2,47.5-52.3,76.6-71.9
			c33.2-22.4,67.9-42.2,101.5-63.8c19.1-12.3,39.5-22.5,58.2-35.4c4.1-2.9,0.6-8.8-3.9-6.7c-18.5,8.7-36.1,19.5-53.8,29.6
			c-18.1,10.3-36,20.7-53.8,31.6c-32.7,20.2-66.2,40.8-95.6,65.8c-15.2,12.9-28.9,27.8-38.7,45.3c-3,5.3,4.2,11.2,8.6,6.6
			c14.4-15,28.9-30,43.3-45c6.9-7.2,14-14.4,20.8-21.7c5.9-6.3,11.1-12.9,14.2-21.1c1.4-3.9-2.9-7.4-6.5-6.5
			c-20.1,5.5-39.5,13.8-57.4,24.5c2.8,1.6,5.6,3.2,8.3,4.8c0.2-3.9,0.5-7.9,0.7-11.8c0.2-3.7-3.6-5.9-6.9-5.2
			c-5.7,1.2-11.5,1.4-17.2,0.5c1.2,2.1,2.4,4.3,3.7,6.4c2-6.3,2-12.8,0-19.1c-1.4-4.5-6.8-4.7-9.4-1.2c-4.5,6.1-10,11.4-16.2,15.6
			c2.4,1,4.9,2,7.3,3c-1.6-5-2.6-11.2-5.5-15.7c-2.9-4.7-7.5-4.1-11.9-2.1c-12.6,5.5-16.1-13.5-16.7-21.7c-1.9,1.5-3.9,3-5.8,4.4
			c17.4,4.3,36.2,6.4,53.2-0.8c13.4-5.7,24.8-18,26.9-32.7c2.2-16-6.8-30.6-17.5-41.7c-11.6-12.1-26-23.3-41.8-29.3
			c-9.2-3.5-19.3-5.2-29-3.9c-6.1,0.8-16.7,2.8-18.7,9.7C65.1,15.5,67.8,16.1,68.5,14.5L68.5,14.5z"/>
	</g>
</g>
</svg>
