<svg xmlns="http://www.w3.org/2000/svg" width="382.24" height="222.39" viewBox="0 0 382.24 222.39">
  <title>signaturetest2</title>
  <path d="M6.21,127.95a0.05,0.05,0,0,0,0-.1,0.05,0.05,0,0,0,0,.1h0Z" transform="translate(-4.54 -3.51)"/>
  <path d="M7.28,151.47A434.88,434.88,0,0,1,44,45.81l-6.1-.8c4.65,18.77,5.62,38.11,5.51,57.37-0.1,17.51-2.77,36.45,4.07,53.08,1.27,3.08,5.16,3.18,6.4,0,8.16-21,12-43.2,18.42-64.69A162.7,162.7,0,0,1,83,63.26C87.58,54.19,93.5,46.38,99.46,38.2c1.7-2.33-1.71-5.8-4-4-15.82,12-23.76,33.11-29.21,51.51-6.7,22.59-10.07,46-18.72,68h6.4c-7-17.14-3.66-37.07-3.63-55.12,0-18.65-1.18-37.24-5.91-55.34-0.69-2.63-4.83-3.44-6.1-.8a418.61,418.61,0,0,0-21,52.27c-5.93,18.27-9.57,37.08-12.65,56-0.29,1.75,2.35,2.54,2.71.75h0Z" transform="translate(-4.54 -3.51)"/>
  <path d="M68.48,14.47c1.84-4.49,10.18-4.78,14.22-5a62,62,0,0,1,14.73.83,73.53,73.53,0,0,1,24.9,9.87C137,29,152.44,42,160.47,57.4s3,31.95-11.32,41.26c-16.13,10.47-36.1,8.69-54.06,4.85-2.63-.56-6.18,1.28-5.84,4.45,1.16,10.68,2.61,22.41,12.38,28.83,4,2.63,9.24,4,14,2.85,1-.25,2-0.92,3-1.11,1.2-.22.41-1.06,1.08,1,1.14,3.5,2.13,7.06,3.19,10.58,0.89,2.94,4.53,4.77,7.3,3a75.86,75.86,0,0,0,20.08-19l-9.38-1.23a20,20,0,0,1-.18,13.63,5.25,5.25,0,0,0,3.65,6.43,59.25,59.25,0,0,0,22.89-.11l-6.89-5.25-0.92,11.79c-0.33,4.3,4.92,6.76,8.34,4.78a271.57,271.57,0,0,1,54.61-24L216,133.66c-3,8-9.37,14.14-15.22,20.18l-20,20.66-40.7,42,8.58,6.62c17.55-31.22,47.51-52.27,76.57-71.9,33.16-22.4,67.86-42.23,101.5-63.82C345.82,75.16,366.26,64.95,384.94,52A3.89,3.89,0,0,0,381,45.31C362.52,54,344.91,64.8,327.17,74.9c-18.08,10.3-36,20.66-53.75,31.61-32.69,20.21-66.19,40.83-95.55,65.77-15.23,12.93-28.89,27.82-38.66,45.34-3,5.32,4.19,11.2,8.58,6.62l43.3-45c6.94-7.22,14-14.39,20.83-21.68,5.94-6.31,11.15-12.89,14.2-21.08,1.44-3.86-2.86-7.44-6.46-6.46a228.17,228.17,0,0,0-57.41,24.55l8.34,4.78,0.72-11.79c0.23-3.72-3.64-5.95-6.89-5.25a46.64,46.64,0,0,1-17.22.52l3.65,6.43a31.11,31.11,0,0,0,0-19.14c-1.44-4.49-6.79-4.73-9.38-1.23a67.85,67.85,0,0,1-16.24,15.62l7.3,3c-1.63-5-2.65-11.17-5.47-15.65-2.94-4.67-7.46-4.07-11.87-2.15-12.57,5.49-16.05-13.51-16.7-21.71l-5.84,4.45c17.39,4.26,36.23,6.45,53.18-.79,13.4-5.72,24.84-18,26.88-32.74,2.2-16-6.82-30.57-17.47-41.68-11.61-12.11-26-23.33-41.79-29.34-9.15-3.49-19.27-5.24-29-3.91-6.12.84-16.68,2.8-18.74,9.74-0.55,1.84,2.11,2.45,2.8.77h0Z" transform="translate(-4.54 -3.51)"/>
</svg>
